<svg xmlns="http://www.w3.org/2000/svg" width="145.452" height="199.996" viewBox="0 0 145.452 199.996">
  <g id="Group_1904" data-name="Group 1904" transform="translate(-4 -1)">
    <path id="Path_6297" data-name="Path 6297" d="M126.725,55.544A22.727,22.727,0,0,1,104,32.818V10.091H61.181a4.809,4.809,0,0,1-4.454-2.273A13.818,13.818,0,0,0,44.908,1,13.618,13.618,0,0,0,31.272,14.636V60.09a13.636,13.636,0,1,0,27.272,0V32.818a4.545,4.545,0,1,0-9.091,0V60.09a4.545,4.545,0,0,1-9.091,0V32.818a13.636,13.636,0,1,1,27.272,0V60.09a22.727,22.727,0,1,1-45.454,0V14.636a19.436,19.436,0,0,1,.455-4.091A22.636,22.636,0,0,0,4,32.818V178.269A22.727,22.727,0,0,0,26.727,201h100a22.727,22.727,0,0,0,22.727-22.727V55.544Zm0,100h-100a4.545,4.545,0,1,1,0-9.091h100a4.545,4.545,0,1,1,0,9.091Zm0-27.272h-100a4.545,4.545,0,1,1,0-9.091h100a4.545,4.545,0,1,1,0,9.091Zm0-27.272H81.271a4.545,4.545,0,0,1,0-9.091h45.454a4.545,4.545,0,0,1,0,9.091ZM113.089,11.636V32.818a13.618,13.618,0,0,0,13.636,13.636h21.091A64.2,64.2,0,0,0,113.089,11.636Z" transform="translate(0 0)" fill="#fff"/>
  </g>
</svg>
