<svg xmlns="http://www.w3.org/2000/svg" width="47.05" height="47.05" viewBox="0 0 47.05 47.05">
  <g id="Group_98" data-name="Group 98" transform="translate(-2 -2)">
    <path id="Path_254" data-name="Path 254" d="M46.7,9.057H4.352a2.352,2.352,0,0,0,0,4.7h4.7v28.23a7.057,7.057,0,0,0,7.057,7.057h18.82a7.057,7.057,0,0,0,7.057-7.057V13.762h4.7a2.352,2.352,0,0,0,0-4.7ZM23.172,34.935a2.352,2.352,0,0,1-4.7,0V23.172a2.352,2.352,0,0,1,4.7,0Zm9.41,0a2.352,2.352,0,0,1-4.7,0V23.172a2.352,2.352,0,0,1,4.7,0ZM20.82,6.7h9.41a2.352,2.352,0,1,0,0-4.7H20.82a2.352,2.352,0,1,0,0,4.7Z" fill="#fff"/>
  </g>
</svg>
