<svg xmlns="http://www.w3.org/2000/svg" width="46.999" height="46.95" viewBox="0 0 46.999 46.95">
  <g id="Group_97" data-name="Group 97" transform="translate(0 -0.248)">
    <path id="Path_253" data-name="Path 253" d="M29.025,8.094,3.165,33.956a1.031,1.031,0,0,0-.269.472L.03,45.933A1.018,1.018,0,0,0,1.017,47.2a1.011,1.011,0,0,0,.246-.031l11.5-2.867a1.017,1.017,0,0,0,.472-.268L39.1,18.172ZM45.509,4.568,42.631,1.69a5.213,5.213,0,0,0-7.2,0L31.906,5.216,41.983,15.293l3.526-3.526a5.092,5.092,0,0,0,0-7.2Zm0,0" transform="translate(0 0)" fill="#fff"/>
  </g>
</svg>
