<svg id="Group_94" data-name="Group 94" xmlns="http://www.w3.org/2000/svg" width="85.038" height="95.15" viewBox="0 0 85.038 95.15">
  <path id="Path_250" data-name="Path 250" d="M69.04,80v4.742a10.152,10.152,0,0,1-5.188,8.987,10.149,10.149,0,0,1-10.375,0L32.392,81.551A10.151,10.151,0,0,1,27.2,72.564V10.377A10.388,10.388,0,0,1,37.581,0H84.017A10.388,10.388,0,0,1,94.394,10.377V23.486a3.407,3.407,0,1,1-6.814,0V10.377a3.568,3.568,0,0,0-3.564-3.564H43.327L63.852,18.665A10.152,10.152,0,0,1,69.04,27.65V73.181H84.017a3.567,3.567,0,0,0,3.564-3.563V58.127a3.407,3.407,0,1,1,6.814,0V69.618A10.388,10.388,0,0,1,84.017,80ZM100.611,43.4l-3.752,3.752a3.407,3.407,0,0,0,4.819,4.818l9.567-9.568a3.405,3.405,0,0,0,0-4.816l-9.567-9.567a3.406,3.406,0,1,0-4.819,4.816l3.752,3.751H75.475a3.407,3.407,0,0,0,0,6.814h25.137Z" transform="translate(-27.204)" fill="#fff" fill-rule="evenodd"/>
</svg>
