<svg id="Group_1903" data-name="Group 1903" xmlns="http://www.w3.org/2000/svg" width="199.996" height="199.996" viewBox="0 0 199.996 199.996">
  <path id="Path_6295" data-name="Path 6295" d="M57.619,67.018V200H94.728V176.132h11.719V200h35.338V67.018Zm25.389,96.508H71.289V151.8H83.008Zm0-23.45H71.289V128.35H83.008Zm0-22.911H71.289V105.44H83.008Zm0-23.45H71.289V81.99H83.008Zm23.439,69.811H94.727V151.8h11.719Zm0-23.45H94.727V128.35h11.719Zm0-22.911H94.727V105.44h11.719Zm0-23.45H94.727V81.99h11.719Zm23.439,69.811H118.166V151.8h11.719v11.724Zm0-23.45H118.166V128.35h11.719v11.724Zm0-22.911H118.166V105.44h11.719v11.724Zm-11.719-23.45V81.99h11.719V93.714H118.166ZM35.542,164.065V152.341H45.9V140.615H35.542V128.89H45.9V117.164H35.542V105.44H45.9V81.99H0V93.714H11.8V200H45.9V164.065ZM200,81.99H153.5v23.45h10.951v11.724H153.5V128.89h10.951v11.724H153.5v11.726h10.951v11.724H153.5V200h34.7V93.714H200Zm-46.863-26.7h14.6V11.439H108.213V0H96.494V11.439H32.259V55.293ZM138.469,24.754h14.254v4.461H144.28v2.055H151.7v4.261H144.28v2.305h8.768V42.3h-14.58V24.754Zm-12.077-.4a9.473,9.473,0,0,1,7.866,3.509L130.525,31.2a4.736,4.736,0,0,0-3.833-2.055c-2.455,0-4.109,1.7-4.109,4.386s1.653,4.386,4.109,4.386a4.738,4.738,0,0,0,3.833-2.055l3.733,3.334a9.472,9.472,0,0,1-7.866,3.509c-5.637,0-9.77-3.785-9.77-9.173s4.134-9.174,9.77-9.174ZM111.961,42.3h-5.912V24.754h5.912V42.3ZM87.409,24.754h14.254v4.461H93.321v3.008h7.315v4.462H93.321V42.3H87.409V24.754Zm-18.641,0H83.022v4.461H74.68v3.008H82v4.462H74.68V42.3H68.768V24.754ZM44.316,33.527c0-5.314,4.184-9.173,9.9-9.173s9.9,3.86,9.9,9.173-4.184,9.173-9.9,9.173S44.316,38.84,44.316,33.527Z" fill="#fff"/>
  <path id="Path_6296" data-name="Path 6296" d="M136.58,78.987c0-2.732-1.753-4.386-3.933-4.386s-3.933,1.655-3.933,4.386,1.753,4.386,3.933,4.386S136.58,81.719,136.58,78.987Z" transform="translate(-78.436 -45.461)" fill="#fff"/>
</svg>
