<svg xmlns="http://www.w3.org/2000/svg" width="30" height="28.406" viewBox="0 0 30 28.406">
  <g id="Group_1902" data-name="Group 1902" transform="translate(-1 -1.804)">
    <path id="Layer_2" data-name="Layer 2" d="M29.21,11.84a3.92,3.92,0,0,1-3.09-5.3,1.84,1.84,0,0,0-.55-2.07,14.75,14.75,0,0,0-4.4-2.55,1.85,1.85,0,0,0-2.09.58,3.91,3.91,0,0,1-6.16,0,1.85,1.85,0,0,0-2.09-.58,14.82,14.82,0,0,0-4.1,2.3,1.86,1.86,0,0,0-.58,2.13A3.9,3.9,0,0,1,2.9,11.71,1.85,1.85,0,0,0,1.28,13.2,14.14,14.14,0,0,0,1,16a14.32,14.32,0,0,0,.19,2.35A1.85,1.85,0,0,0,2.82,19.9,3.9,3.9,0,0,1,6,25.41a1.82,1.82,0,0,0,.51,2.18,14.86,14.86,0,0,0,4.36,2.51,2,2,0,0,0,.63.11,1.84,1.84,0,0,0,1.5-.78,3.87,3.87,0,0,1,3.2-1.68,3.92,3.92,0,0,1,3.14,1.58,1.84,1.84,0,0,0,2.16.61,15,15,0,0,0,4-2.39,1.85,1.85,0,0,0,.54-2.11,3.9,3.9,0,0,1,3.13-5.39,1.85,1.85,0,0,0,1.57-1.52A14.5,14.5,0,0,0,31,16a14.358,14.358,0,0,0-.251-2.673A1.83,1.83,0,0,0,29.21,11.84ZM21,16a5,5,0,1,1-5-5,5,5,0,0,1,5,5Z" fill="#fff"/>
  </g>
</svg>
